<svg xmlns="http://www.w3.org/2000/svg" width="139.556" height="115.285" viewBox="0 0 139.556 115.285">
  <path id="iconfinder_46.Calendar_290104" d="M128.42,120.285H13.135A12.136,12.136,0,0,1,1,108.15V17.135A12.136,12.136,0,0,1,13.135,5H128.42a12.136,12.136,0,0,1,12.135,12.135V108.15A12.136,12.136,0,0,1,128.42,120.285Zm6.068-103.15a6.07,6.07,0,0,0-6.068-6.068H13.135a6.07,6.07,0,0,0-6.068,6.068v18.2h127.42Zm0,24.271H7.068V108.15a6.07,6.07,0,0,0,6.068,6.068H128.42a6.07,6.07,0,0,0,6.068-6.068ZM122.353,83.879h-6.068a3.033,3.033,0,0,1-3.034-3.034V74.778a3.035,3.035,0,0,1,3.034-3.034h6.068a3.033,3.033,0,0,1,3.034,3.034v6.068A3.031,3.031,0,0,1,122.353,83.879Zm0-21.237h-6.068a3.033,3.033,0,0,1-3.034-3.034V53.541a3.033,3.033,0,0,1,3.034-3.034h6.068a3.031,3.031,0,0,1,3.034,3.034v6.068A3.031,3.031,0,0,1,122.353,62.643ZM98.082,83.879H92.015a3.033,3.033,0,0,1-3.034-3.034V74.778a3.035,3.035,0,0,1,3.034-3.034h6.068a3.033,3.033,0,0,1,3.034,3.034v6.068A3.031,3.031,0,0,1,98.082,83.879Zm0-21.237H92.015a3.033,3.033,0,0,1-3.034-3.034V53.541a3.033,3.033,0,0,1,3.034-3.034h6.068a3.031,3.031,0,0,1,3.034,3.034v6.068A3.031,3.031,0,0,1,98.082,62.643ZM73.812,83.879H67.744a3.031,3.031,0,0,1-3.034-3.034V74.778a3.033,3.033,0,0,1,3.034-3.034h6.068a3.033,3.033,0,0,1,3.034,3.034v6.068A3.031,3.031,0,0,1,73.812,83.879Zm0-21.237H67.744a3.031,3.031,0,0,1-3.034-3.034V53.541a3.031,3.031,0,0,1,3.034-3.034h6.068a3.031,3.031,0,0,1,3.034,3.034v6.068A3.031,3.031,0,0,1,73.812,62.643ZM49.541,105.116H43.473a3.031,3.031,0,0,1-3.034-3.034V96.015a3.031,3.031,0,0,1,3.034-3.034h6.068a3.031,3.031,0,0,1,3.034,3.034v6.068A3.031,3.031,0,0,1,49.541,105.116Zm0-21.237H43.473a3.031,3.031,0,0,1-3.034-3.034V74.778a3.033,3.033,0,0,1,3.034-3.034h6.068a3.033,3.033,0,0,1,3.034,3.034v6.068A3.031,3.031,0,0,1,49.541,83.879Zm0-21.237H43.473a3.031,3.031,0,0,1-3.034-3.034V53.541a3.031,3.031,0,0,1,3.034-3.034h6.068a3.031,3.031,0,0,1,3.034,3.034v6.068A3.031,3.031,0,0,1,49.541,62.643ZM25.271,105.116H19.2a3.031,3.031,0,0,1-3.034-3.034V96.015A3.031,3.031,0,0,1,19.2,92.981h6.068A3.031,3.031,0,0,1,28.3,96.015v6.068A3.031,3.031,0,0,1,25.271,105.116Zm0-21.237H19.2a3.031,3.031,0,0,1-3.034-3.034V74.778A3.033,3.033,0,0,1,19.2,71.744h6.068A3.033,3.033,0,0,1,28.3,74.778v6.068A3.031,3.031,0,0,1,25.271,83.879Zm42.473,9.1h6.068a3.031,3.031,0,0,1,3.034,3.034v6.068a3.031,3.031,0,0,1-3.034,3.034H67.744a3.031,3.031,0,0,1-3.034-3.034V96.015A3.031,3.031,0,0,1,67.744,92.981Z" transform="translate(-1 -5)" fill="#f9ff00" fill-rule="evenodd"/>
</svg>
