<svg xmlns="http://www.w3.org/2000/svg" width="139.41" height="139.41" viewBox="0 0 139.41 139.41">
  <path id="iconfinder_47.Explore_290103" d="M72.705,142.41A69.705,69.705,0,1,1,142.41,72.705,69.7,69.7,0,0,1,72.705,142.41Zm0-132.772a63.066,63.066,0,1,0,63.066,63.066A63.068,63.068,0,0,0,72.705,9.639Zm53.109,66.386h-3.319a3.319,3.319,0,1,1,0-6.639h3.319a3.319,3.319,0,1,1,0,6.639Zm-19.985,27.231a3.132,3.132,0,0,1-.866,1.706,3.232,3.232,0,0,1-3.747.571l.193.2.027.027h0c-.538-.222-1.016-.432-1.54-.647-17.224-7.176-27.261-12.8-32.751-16.391a37.489,37.489,0,0,1-5.955-4.491c-.149-.143-8.258-8.006-21.526-40.246h0l.222.222c-.033-.066-.04-.139-.066-.206a3.2,3.2,0,0,1-.126-2.194,3.1,3.1,0,0,1,.76-1.351,3.211,3.211,0,0,1,3.655-.6.765.765,0,0,1,.093.033l-.076-.083-.143-.139h0c32.24,13.267,40.1,21.376,40.246,21.526s8.258,8.009,21.526,40.246l0,0a0,0,0,0,1,0,0l-.146-.146-.076-.073a3.6,3.6,0,0,1,.159.485A3.273,3.273,0,0,1,105.828,103.256ZM79.5,65.844c-.07-.07-6.692-6.4-30.494-16.839,10.442,23.8,16.779,30.428,16.912,30.564.07.07,6.692,6.4,30.494,16.839C85.966,72.6,79.629,65.98,79.5,65.844Zm-6.791,3.542a3.319,3.319,0,1,1-3.319,3.319A3.316,3.316,0,0,1,72.705,69.386Zm0-43.151a3.318,3.318,0,0,1-3.319-3.319V19.6a3.319,3.319,0,1,1,6.639,0v3.319A3.318,3.318,0,0,1,72.705,26.235Zm0,92.94a3.316,3.316,0,0,1,3.319,3.319v3.319a3.319,3.319,0,1,1-6.639,0v-3.319A3.316,3.316,0,0,1,72.705,119.175ZM22.916,76.024H19.6a3.319,3.319,0,0,1,0-6.639h3.319a3.319,3.319,0,0,1,0,6.639Z" transform="translate(-3 -3)" fill="#f9ff00" fill-rule="evenodd"/>
</svg>
