<svg xmlns="http://www.w3.org/2000/svg" width="115.612" height="166.193" viewBox="0 0 115.612 166.193">
  <path id="iconfinder_36.Watch_290114" d="M116.387,91.322c-.173,0-.336-.04-.509-.051a54.138,54.138,0,0,1-21.168,36.1v25.366a14.452,14.452,0,0,1-14.452,14.452H44.129a14.452,14.452,0,0,1-14.452-14.452V127.375a54.042,54.042,0,0,1,0-86.558V15.452A14.452,14.452,0,0,1,44.129,1H80.258A14.452,14.452,0,0,1,94.709,15.452V40.818a54.125,54.125,0,0,1,21.168,36.1c.173-.011.336-.051.509-.051a7.226,7.226,0,0,1,0,14.452ZM36.9,152.741a7.228,7.228,0,0,0,7.226,7.226H80.258a7.228,7.228,0,0,0,7.226-7.226V132.011a54.069,54.069,0,0,1-50.58,0Zm50.58-137.29a7.228,7.228,0,0,0-7.226-7.226H44.129A7.228,7.228,0,0,0,36.9,15.452V36.182a54.069,54.069,0,0,1,50.58,0ZM62.193,37.129A46.968,46.968,0,1,0,109.161,84.1,46.966,46.966,0,0,0,62.193,37.129ZM65.806,94.27v22.342a3.613,3.613,0,0,1-7.226,0V94.27a10.7,10.7,0,0,1-6.1-14.9L41.549,68.438a3.528,3.528,0,1,1,4.989-4.989L57.471,74.381A10.8,10.8,0,1,1,65.806,94.27ZM62.193,80.484A3.613,3.613,0,1,0,65.806,84.1,3.61,3.61,0,0,0,62.193,80.484Z" transform="translate(-8 -1)" fill="#f9ff00" fill-rule="evenodd"/>
</svg>
